# xmcd CD database file
#
# Track frame offsets:
#	183
#	17178
#	38185
#	52800
#	71263
#	92965
#	108343
#	122098
#	135513
#	154415
#	168293
#	181285
#	197585
#	214988
#	235543
#	251973
#
# Disc length: 3488 seconds
#
# Revision: 2
# Processed by: cddbd v1.5.2PL0 Copyright (c) Steve Scherf et al.
# Submitted via: CDex 1.77
#
DISCID=da0d9e10
DTITLE=Pino Daniele - Tra Musica e Magia
DYEAR=1990
DGENRE=Pop Italiano
TTITLE0=Je Sto Vicino a Te
TTITLE1=Quanno Chiove
TTITLE2=Alleria
TTITLE3=Voglio Di Piu'
TTITLE4=Ue Man!
TTITLE5='Na Tazzulella 'e Cafe'
TTITLE6=Je So' Pazzo
TTITLE7=Che Calore
TTITLE8=I Say I'sto cca'
TTITLE9=A Me Me Piace o' Blues
TTITLE10=Musica Musica
TTITLE11=Nun Me Scoccia'
TTITLE12=Napule e'
TTITLE13=E So' Cuntento 'e Sta
TTITLE14=Basta Na Jurnata e Sole
TTITLE15=Terra Mia
EXTD=YEAR: 1990
EXTT0=
EXTT1=
EXTT2=
EXTT3=
EXTT4=
EXTT5=
EXTT6=
EXTT7=
EXTT8=
EXTT9=
EXTT10=
EXTT11=
EXTT12=
EXTT13=
EXTT14=
EXTT15=
PLAYORDER=
